<svg version="1.2" xmlns="http://www.w3.org/2000/svg" viewBox="0 0 468 482" width="468" height="482">
	<style>
		.s0 { fill: currentColor }
	</style>
	<path id="Path 0" fill-rule="evenodd" class="s0" d="m229.75 21.12c7.29-0.07 16.51 0.36 20.5 0.94 3.99 0.59 10.74 1.71 15 2.5 4.26 0.79 12.59 3.04 18.5 4.99 5.91 1.96 15.48 6.06 21.25 9.12 5.77 3.06 13.42 7.64 17 10.19 3.58 2.55 10.12 8.24 14.55 12.64 4.43 4.4 9.86 10.25 12.08 13 2.21 2.75 5.55 7.25 7.41 10 1.86 2.75 5.92 10.17 9.02 16.5 3.11 6.33 7.27 16.45 9.25 22.5 1.99 6.05 4.54 14.38 5.69 18.5 1.14 4.13 3.68 13.58 5.64 21 1.96 7.42 4.23 16.65 5.05 20.5 0.87 4.12 1.55 13.18 1.65 22 0.1 9.87-0.33 17.22-1.27 21.5-0.78 3.58-2.85 10.1-4.59 14.5-1.74 4.4-4.81 10.7-6.83 14-2.02 3.3-6.01 8.7-8.86 12-2.86 3.3-8.26 8.7-12.01 12-3.74 3.3-6.81 6.45-6.82 7-0.01 0.55 1.1 1.67 2.46 2.5 2.39 1.45 2.67 1.31 8.78-4.41 3.46-3.26 8.55-7.57 11.3-9.6 2.75-2.02 8.38-5.52 12.5-7.77 4.12-2.26 11.1-5.08 15.5-6.28 5.7-1.55 9.44-2.01 13-1.58 2.75 0.33 7.25 1.37 10 2.32 3.35 1.16 7.15 3.76 11.5 7.87 4.64 4.38 7.55 8.26 10.18 13.54 2.03 4.08 4.66 10.33 5.84 13.91 1.19 3.58 2.79 10.33 3.55 15 0.78 4.74 1.4 15.58 1.4 24.5 0 8.98-0.62 19.73-1.4 24.5-0.77 4.67-1.7 9.85-2.08 11.5-0.37 1.65-1.83 6.15-3.24 10-1.41 3.85-4.12 9.48-6.01 12.5-1.9 3.02-4.87 6.78-6.6 8.34-1.73 1.57-4.94 3.69-7.14 4.73-2.2 1.04-4.67 1.89-5.5 1.9-1.1 0-1.72 1.8-2.32 6.77-0.45 3.72-1.39 8.11-2.08 9.76-0.7 1.65-2.8 4.71-4.68 6.81-2.12 2.36-5.13 4.34-7.92 5.22-2.94 0.93-5.71 1.15-8 0.64-1.92-0.43-5.41-1.77-7.75-2.98-2.34-1.2-4.7-2.19-5.25-2.19-0.55 0-1 0.67-1 1.5 0 0.83-3.04 4.55-6.75 8.27-5.03 5.05-9.17 8.02-16.25 11.63-5.23 2.67-14 6.41-19.5 8.31-5.5 1.89-15.17 4.55-21.5 5.89-6.33 1.35-15.77 3.07-21 3.83-5.23 0.76-14.67 1.88-21 2.5-6.33 0.61-16.45 1.55-22.5 2.09-6.05 0.54-18.65 0.99-28 0.99-9.35 0-21.95-0.45-28-0.99-6.05-0.54-16.18-1.49-22.5-2.11-6.32-0.61-15.55-1.73-20.5-2.47-4.95-0.74-14.18-2.45-20.5-3.81-6.32-1.36-14.43-3.47-18-4.69-3.57-1.22-10.77-4.08-16-6.37-5.23-2.28-11.75-5.65-14.5-7.5-2.75-1.85-6.72-4.98-8.81-6.96-2.1-1.99-4.46-5.07-5.25-6.86-0.79-1.79-1.89-3.25-2.44-3.25-0.55 0-3.36 1.19-6.25 2.64-3.37 1.7-6.86 2.64-9.75 2.64-2.48-0.01-5.85-0.69-7.5-1.51-1.65-0.83-4.29-3.03-5.86-4.89-1.58-1.86-3.43-4.73-4.12-6.38-0.7-1.65-1.66-6.02-2.14-9.7-0.87-6.64-0.91-6.71-4.38-7.36-1.93-0.37-4.62-1.4-6-2.3-1.37-0.9-3.54-2.54-4.81-3.64-1.28-1.1-3.63-4.02-5.23-6.5-1.6-2.48-4.41-8.33-6.25-13-1.85-4.67-3.88-11.2-4.52-14.5-0.65-3.3-1.63-8.7-2.19-12-0.56-3.3-1.01-12.64-1.01-20.75 0.01-8.61 0.67-18.81 1.59-24.5 0.86-5.36 2.49-12.45 3.62-15.75 1.12-3.3 3.29-8.7 4.82-12 1.52-3.3 5.18-8.66 8.13-11.9 2.94-3.25 6.92-6.9 8.85-8.13 1.93-1.22 5.98-2.95 9-3.85 3.02-0.9 7.07-1.64 9-1.65 1.93 0 7.32 1.09 12 2.44 4.68 1.35 11.43 4.07 15 6.06 3.57 1.98 9.2 5.62 12.5 8.08 3.3 2.46 8.25 6.7 11 9.43 2.75 2.73 5.45 4.96 6 4.97 0.55 0 2.12-0.83 6-3.69l-3-2.36c-1.65-1.29-6.87-6.19-11.61-10.88-4.73-4.68-10.77-11.89-13.43-16.02-2.65-4.12-6.11-10.65-7.68-14.5-1.58-3.85-3.48-9.7-4.23-13-0.75-3.3-1.66-10.27-2.02-15.5-0.35-5.23-0.22-13.55 0.31-18.5 0.53-4.95 2.84-16.65 5.14-26 2.29-9.35 5.75-22.4 7.69-29 1.93-6.6 4.84-15.83 6.45-20.5 1.62-4.67 3.65-10.08 4.5-12 0.85-1.92 3.37-7.1 5.59-11.5 2.23-4.4 5.42-10.02 7.09-12.5 1.67-2.48 4.84-6.75 7.03-9.5 2.19-2.75 7.63-8.6 12.09-13 4.46-4.4 11.03-10.09 14.59-12.64 3.57-2.56 11.67-7.31 17.99-10.56 6.32-3.25 16.68-7.54 23-9.52 6.32-1.99 14.2-4.12 17.5-4.74 3.3-0.62 8.7-1.5 12-1.96 3.3-0.46 11.96-0.89 19.25-0.96zm-86.08 97.63c-2.1 1.51-4.91 4.33-6.23 6.25-1.32 1.92-2.86 5.08-3.42 7-0.56 1.92-1.02 5.52-1.02 8 0 2.48 0.46 6.08 1.02 8 0.56 1.92 2.24 5.23 3.75 7.34 1.5 2.11 4.97 5.26 7.71 7 4.59 2.92 5.63 3.16 13.61 3.16 8.22 0 8.89-0.17 13.82-3.5 2.95-1.99 6.56-5.65 8.38-8.5 2.94-4.61 3.19-5.66 3.2-13.5 0.01-7.42-0.33-9.07-2.65-13-1.46-2.48-4.39-5.84-6.5-7.47-2.11-1.63-5.41-3.53-7.34-4.21-1.93-0.68-5.98-1.21-9-1.19-3.02 0.02-6.85 0.46-8.5 0.96-1.65 0.51-4.72 2.15-6.83 3.66zm143.99 0c-2.11 1.51-5.26 4.99-7 7.73-2.91 4.59-3.16 5.64-3.15 13.5 0.01 7.86 0.26 8.9 3.2 13.52 1.82 2.85 5.43 6.51 8.38 8.5 4.94 3.33 5.6 3.5 13.87 3.5 7.91 0 9.08-0.26 13.11-2.91 2.44-1.6 5.47-4.08 6.74-5.5 1.27-1.43 3.06-3.94 3.99-5.59 1.21-2.16 1.68-5.39 1.68-11.5 0-6.17-0.47-9.39-1.74-11.75-0.96-1.79-3.32-4.83-5.24-6.75-1.92-1.92-4.96-4.25-6.75-5.16-1.84-0.94-6.29-1.8-10.25-1.97-3.85-0.18-8.35 0.12-10 0.66-1.65 0.54-4.73 2.21-6.84 3.72zm-78.16 71.7c-3.85 2.1-8.13 4.57-9.5 5.49-1.38 0.92-5.65 3.11-9.5 4.86-5.22 2.38-10.06 3.6-19 4.8-7.21 0.97-12.92 2.27-14.31 3.26-1.27 0.9-2.56 2.54-2.85 3.64-0.3 1.1-0.28 3.46 0.06 5.25 0.33 1.79 2.06 4.89 3.85 6.9 1.79 2.01 6.4 5.99 10.25 8.84 3.85 2.85 8.91 6.16 11.25 7.35 2.34 1.19 8.41 3.25 13.5 4.59 5.09 1.33 14.54 2.91 21 3.5 8.4 0.76 15.1 0.76 23.5-0.02 6.46-0.59 15.91-2.17 21-3.5 5.09-1.32 10.71-3.01 12.5-3.74 1.79-0.74 7.08-3.95 11.75-7.14 4.67-3.19 9.29-6.64 10.25-7.67 0.96-1.02 2.65-3.32 3.75-5.11 1.09-1.79 1.99-4.49 2-6 0-1.61-1.14-3.99-2.75-5.75-2.53-2.75-3.56-3.08-12.75-4.06-5.5-0.59-12.02-1.75-14.5-2.57-2.48-0.83-7.2-2.88-10.5-4.55-3.3-1.67-7.13-3.84-8.5-4.82-1.38-0.98-5.2-3.15-8.5-4.83-4.17-2.12-7.98-3.21-12.5-3.57-3.58-0.28-7.85-0.16-9.5 0.26-1.65 0.43-6.15 2.49-10 4.59z"/>
</svg>
