<svg version="1.1" id="Layer_1" xmlns="http://www.w3.org/2000/svg" xmlns:xlink="http://www.w3.org/1999/xlink" x="0px" y="0px"
	 width="100%" viewBox="50 30 470 110" enable-background="new 0 0 576 166" xml:space="preserve">
<path fill="currentColor" opacity="1.000000" stroke="none"
	d="
M76.480095,109.657623
	C61.358410,100.961090 54.526928,88.100830 56.259300,71.206963
	C57.813564,56.050026 69.200386,43.610535 84.219673,39.520390
	C99.337425,35.403431 115.724937,41.608585 124.607964,55.132355
	C120.660141,57.778347 116.703461,60.430275 112.781021,63.059254
	C99.494354,50.780174 86.658882,49.958206 76.906738,60.640858
	C68.548607,69.796486 68.961052,83.959045 77.575302,92.157585
	C86.778999,100.917114 102.590424,101.575073 112.600990,88.862572
	C116.480049,91.458344 120.395592,94.078545 124.281120,96.678650
	C117.529266,109.994400 95.604813,118.920731 76.480095,109.657623
z"/>
<path fill="currentColor" opacity="1.000000" stroke="none"
	d="
M288.902588,102.002670
	C282.147522,90.412086 282.681641,78.812439 290.201996,69.581169
	C297.870758,60.167717 309.164368,57.678699 323.750854,62.421085
	C323.750854,53.781845 323.750854,45.266033 323.750854,36.004234
	C328.333801,37.499317 332.435303,38.552204 336.241638,40.262142
	C337.309021,40.741653 338.010956,43.149441 338.026306,44.681282
	C338.161499,58.167622 338.131927,71.655968 338.094818,85.143562
	C338.058746,98.254929 330.928802,108.780083 319.596863,112.574318
	C308.636841,116.244026 297.366486,112.457687 288.902588,102.002670
M323.357666,83.451416
	C320.459259,76.127945 314.399658,72.597664 307.912292,74.453072
	C301.225586,76.365486 297.375427,82.682594 298.797546,89.408089
	C300.214813,96.110703 306.355347,100.255638 313.277252,99.182098
	C320.198120,98.108719 324.365509,92.082565 323.357666,83.451416
z"/>
<path fill="currentColor" opacity="1.000000" stroke="none"
	d="
M206.804474,126.581818
	C206.804474,128.339844 206.804474,129.654572 206.804474,131.693649
	C201.834732,130.071487 197.349380,128.607422 192.924347,127.163063
	C192.924347,111.926865 192.312683,96.981712 193.127655,82.114769
	C193.725311,71.212440 204.412689,61.508751 215.184967,60.077694
	C227.782913,58.404110 239.269867,64.837685 244.269333,76.367210
	C248.858871,86.951324 245.759628,99.844299 236.985855,107.170937
	C227.894989,114.762344 217.932983,115.655060 206.804474,110.914291
	C206.804474,116.254852 206.804474,121.196686 206.804474,126.581818
M218.684891,74.050941
	C212.813187,74.718834 208.701508,77.851288 207.209778,83.500603
	C205.963043,88.222115 207.033203,92.742149 210.926392,96.171753
	C215.014038,99.772652 221.184875,100.411873 225.733231,97.758217
	C230.649124,94.890121 232.998947,89.764786 231.924789,84.253479
	C230.816574,78.567398 226.423615,74.948006 218.684891,74.050941
z"/>
<path fill="currentColor" opacity="1.000000" stroke="none"
	d="
M497.281097,63.081604
	C499.199219,61.925442 500.809113,60.402122 502.523376,60.273849
	C507.243378,59.920650 512.007080,60.151825 518.051208,60.151825
	C511.566193,67.379524 506.075562,73.738731 500.294250,79.821594
	C498.057800,82.174683 497.872284,83.824371 499.726227,86.565826
	C505.386383,94.935730 510.711060,103.532501 516.769714,112.982170
	C511.036530,112.982170 506.160858,113.157021 501.316010,112.848190
	C500.226990,112.778763 499.025970,111.166855 498.252563,110.012978
	C494.740784,104.773643 491.363525,99.444145 487.924194,94.125931
	C479.343811,98.151161 482.701233,106.025749 481.726318,112.692413
	C477.193970,112.692413 472.791748,112.692413 468.026642,112.692413
	C468.026642,87.641983 468.026642,62.609779 468.026642,37.204529
	C472.362823,37.204529 476.776550,37.204529 481.792847,37.204529
	C481.792847,50.901592 481.792847,64.748558 481.792847,80.184975
	C487.572174,73.795967 492.296326,68.573463 497.281097,63.081604
z"/>
<path fill="currentColor" opacity="1.000000" stroke="none"
	d="
M146.005814,74.007477
	C146.006088,79.332848 145.946945,84.161407 146.021271,88.987907
	C146.120056,95.402977 149.930801,99.479408 155.604904,99.379196
	C161.009842,99.283737 164.868408,95.197525 164.933487,89.157097
	C165.035492,79.690025 164.960556,70.221046 164.960556,60.456242
	C169.646301,60.456242 174.045013,60.456242 178.733612,60.456242
	C178.733612,71.867043 179.708374,83.381935 178.467865,94.653000
	C177.146378,106.659546 165.408127,114.458092 153.014191,113.453453
	C141.269455,112.501427 132.188614,102.932747 131.945679,90.865707
	C131.742401,80.768219 131.903961,70.663383 131.903961,60.363724
	C136.669556,60.363724 140.948898,60.363724 146.005814,60.363724
	C146.005814,64.694168 146.005814,69.101959 146.005814,74.007477
z"/>
<path fill="currentColor" opacity="1.000000" stroke="none"
	d="
M383.858582,63.227776
	C384.733704,61.886799 385.552856,60.354828 386.489746,60.279087
	C390.101288,59.987106 393.750519,60.160622 397.616852,60.160622
	C397.616852,71.760056 398.568481,83.116928 397.362122,94.239754
	C396.027161,106.548065 384.667847,114.409241 372.231995,113.499298
	C360.142731,112.614716 351.145233,103.219780 350.805267,90.700035
	C350.552124,81.376518 350.728882,72.041183 350.734161,62.711117
	C350.734528,62.063160 350.901337,61.415306 351.031982,60.468525
	C355.496887,60.468525 359.899200,60.468525 364.926025,60.468525
	C364.926025,70.167259 364.857666,79.771683 364.951111,89.374542
	C365.009155,95.341415 368.516724,99.117477 373.873962,99.322365
	C379.549774,99.539429 383.694366,95.494392 383.810760,89.196533
	C383.967743,80.702194 383.854156,72.202858 383.858582,63.227776
z"/>
<path fill="currentColor" opacity="1.000000" stroke="none"
	d="
M447.484863,78.638023
	C446.083679,78.278839 444.883972,77.859001 443.915375,77.131462
	C438.022064,72.704865 431.041046,73.113266 426.360168,78.236786
	C421.985535,83.025085 421.898254,90.362160 426.160065,95.065788
	C430.767914,100.151367 438.056915,100.772232 443.740662,96.538635
	C444.668365,95.847595 445.519928,95.054306 446.562134,94.177498
	C450.246796,96.715294 453.906891,99.236160 457.546814,101.743126
	C451.604004,111.491379 439.034698,116.034309 427.801910,112.753555
	C416.453979,109.439156 408.575684,98.175743 408.892944,85.719864
	C409.199432,73.689255 417.905182,63.186947 429.905823,60.370701
	C440.460114,57.893875 452.573456,62.692589 457.362671,71.527618
	C454.205383,73.806641 450.999268,76.120895 447.484863,78.638023
z"/>
<path fill="currentColor" opacity="1.000000" stroke="none"
	d="
M272.213501,109.886818
	C271.403290,111.259232 270.646088,112.837608 269.775574,112.902763
	C266.013000,113.184448 262.217285,113.023354 258.222595,113.023354
	C258.222595,96.231117 258.222595,79.827934 258.222595,63.089970
	C262.629089,61.646599 267.144745,60.167473 272.214355,58.506901
	C272.214355,75.868004 272.214355,92.632240 272.213501,109.886818
z"/>
</svg>
